<svg xmlns="http://www.w3.org/2000/svg" xmlns:xlink="http://www.w3.org/1999/xlink" width="1024" zoomAndPan="magnify" viewBox="0 0 768 767.999994" height="1024" preserveAspectRatio="xMidYMid meet" version="1.0"><path fill="#ffffff" d="M 760.910156 720.984375 L 408.238281 384.292969 L 744.929688 31.621094 C 745.320312 31.214844 745.6875 30.792969 746.035156 30.347656 C 746.382812 29.90625 746.707031 29.449219 747.011719 28.976562 C 747.3125 28.5 747.59375 28.015625 747.847656 27.511719 C 748.101562 27.011719 748.332031 26.5 748.535156 25.972656 C 748.742188 25.449219 748.917969 24.917969 749.070312 24.375 C 749.222656 23.835938 749.347656 23.285156 749.445312 22.734375 C 749.542969 22.179688 749.613281 21.621094 749.65625 21.0625 C 749.699219 20.5 749.714844 19.9375 749.703125 19.375 C 749.691406 18.8125 749.652344 18.253906 749.585938 17.695312 C 749.515625 17.136719 749.421875 16.582031 749.300781 16.035156 C 749.179688 15.484375 749.03125 14.945312 748.855469 14.410156 C 748.679688 13.875 748.480469 13.351562 748.253906 12.835938 C 748.027344 12.320312 747.773438 11.820312 747.496094 11.328125 C 747.222656 10.839844 746.921875 10.363281 746.597656 9.902344 C 746.277344 9.441406 745.929688 9 745.5625 8.574219 C 745.199219 8.144531 744.8125 7.738281 744.402344 7.351562 C 743.996094 6.960938 743.574219 6.59375 743.128906 6.246094 C 742.6875 5.902344 742.226562 5.578125 741.753906 5.277344 C 741.277344 4.976562 740.789062 4.699219 740.289062 4.445312 C 739.785156 4.191406 739.273438 3.960938 738.746094 3.761719 C 738.222656 3.558594 737.6875 3.378906 737.148438 3.230469 C 736.605469 3.082031 736.058594 2.957031 735.503906 2.859375 C 734.949219 2.765625 734.390625 2.695312 733.832031 2.652344 C 733.269531 2.613281 732.707031 2.597656 732.144531 2.613281 C 731.582031 2.625 731.023438 2.667969 730.464844 2.738281 C 729.90625 2.804688 729.351562 2.902344 728.804688 3.027344 C 728.257812 3.148438 727.714844 3.300781 727.179688 3.476562 C 726.648438 3.652344 726.121094 3.855469 725.609375 4.082031 C 725.09375 4.3125 724.59375 4.566406 724.105469 4.84375 C 723.613281 5.121094 723.140625 5.421875 722.679688 5.746094 C 722.222656 6.070312 721.78125 6.417969 721.355469 6.785156 C 720.929688 7.152344 720.523438 7.539062 720.136719 7.949219 L 383.441406 360.621094 L 30.761719 23.917969 C 30.355469 23.53125 29.933594 23.164062 29.492188 22.820312 C 29.046875 22.472656 28.589844 22.148438 28.117188 21.847656 C 27.640625 21.546875 27.152344 21.269531 26.652344 21.019531 C 26.152344 20.765625 25.640625 20.539062 25.113281 20.335938 C 24.589844 20.132812 24.058594 19.957031 23.519531 19.804688 C 22.976562 19.65625 22.429688 19.53125 21.875 19.433594 C 21.324219 19.339844 20.765625 19.269531 20.207031 19.226562 C 19.648438 19.183594 19.085938 19.171875 18.523438 19.183594 C 17.964844 19.195312 17.402344 19.238281 16.847656 19.304688 C 16.289062 19.375 15.738281 19.46875 15.1875 19.589844 C 14.640625 19.714844 14.101562 19.863281 13.566406 20.039062 C 13.03125 20.214844 12.507812 20.414062 11.996094 20.640625 C 11.480469 20.871094 10.980469 21.121094 10.492188 21.398438 C 10.003906 21.671875 9.527344 21.972656 9.070312 22.296875 C 8.609375 22.617188 8.167969 22.964844 7.742188 23.328125 C 7.316406 23.695312 6.910156 24.082031 6.523438 24.488281 C 6.132812 24.894531 5.769531 25.320312 5.421875 25.761719 C 5.074219 26.203125 4.753906 26.664062 4.453125 27.136719 C 4.152344 27.609375 3.875 28.097656 3.621094 28.597656 C 3.367188 29.101562 3.140625 29.613281 2.9375 30.136719 C 2.734375 30.660156 2.558594 31.191406 2.40625 31.734375 C 2.257812 32.273438 2.132812 32.824219 2.039062 33.375 C 1.941406 33.929688 1.871094 34.484375 1.828125 35.046875 C 1.789062 35.605469 1.773438 36.164062 1.785156 36.726562 C 1.800781 37.289062 1.839844 37.847656 1.910156 38.40625 C 1.976562 38.960938 2.070312 39.515625 2.195312 40.0625 C 2.316406 40.613281 2.464844 41.152344 2.640625 41.6875 C 2.816406 42.21875 3.019531 42.742188 3.246094 43.257812 C 3.472656 43.769531 3.722656 44.269531 4 44.761719 C 4.277344 45.25 4.574219 45.722656 4.898438 46.183594 C 5.222656 46.640625 5.566406 47.085938 5.933594 47.511719 C 6.300781 47.9375 6.683594 48.34375 7.089844 48.730469 L 359.761719 385.421875 L 23.070312 738.09375 C 22.679688 738.5 22.3125 738.921875 21.964844 739.363281 C 21.617188 739.808594 21.292969 740.265625 20.988281 740.738281 C 20.6875 741.210938 20.40625 741.699219 20.152344 742.203125 C 19.898438 742.703125 19.667969 743.214844 19.464844 743.738281 C 19.257812 744.265625 19.082031 744.796875 18.929688 745.339844 C 18.777344 745.878906 18.652344 746.425781 18.554688 746.980469 C 18.457031 747.535156 18.386719 748.09375 18.34375 748.652344 C 18.300781 749.214844 18.285156 749.777344 18.296875 750.335938 C 18.308594 750.898438 18.347656 751.460938 18.414062 752.019531 C 18.484375 752.578125 18.578125 753.128906 18.699219 753.679688 C 18.820312 754.230469 18.96875 754.769531 19.144531 755.304688 C 19.320312 755.839844 19.519531 756.363281 19.75 756.878906 C 19.976562 757.394531 20.226562 757.894531 20.503906 758.386719 C 20.777344 758.875 21.078125 759.351562 21.402344 759.8125 C 21.726562 760.269531 22.070312 760.714844 22.4375 761.140625 C 22.804688 761.566406 23.191406 761.976562 23.597656 762.363281 C 24.003906 762.75 24.429688 763.121094 24.871094 763.464844 C 25.3125 763.8125 25.773438 764.136719 26.246094 764.4375 C 26.722656 764.738281 27.210938 765.015625 27.714844 765.269531 C 28.214844 765.523438 28.730469 765.75 29.253906 765.953125 C 29.777344 766.15625 30.3125 766.332031 30.851562 766.484375 C 31.394531 766.632812 31.941406 766.757812 32.496094 766.851562 C 33.050781 766.949219 33.609375 767.019531 34.167969 767.058594 C 34.730469 767.101562 35.292969 767.113281 35.855469 767.101562 C 36.417969 767.085938 36.976562 767.046875 37.535156 766.976562 C 38.09375 766.90625 38.648438 766.8125 39.195312 766.6875 C 39.742188 766.566406 40.285156 766.414062 40.820312 766.238281 C 41.351562 766.0625 41.878906 765.859375 42.390625 765.628906 C 42.90625 765.402344 43.40625 765.148438 43.894531 764.871094 C 44.382812 764.59375 44.859375 764.292969 45.320312 763.96875 C 45.777344 763.644531 46.21875 763.296875 46.644531 762.929688 C 47.070312 762.5625 47.476562 762.171875 47.863281 761.765625 L 384.558594 409.09375 L 737.238281 745.792969 C 737.644531 746.183594 738.066406 746.550781 738.507812 746.894531 C 738.953125 747.242188 739.410156 747.566406 739.882812 747.867188 C 740.359375 748.167969 740.847656 748.441406 741.347656 748.695312 C 741.847656 748.949219 742.359375 749.175781 742.882812 749.378906 C 743.410156 749.582031 743.941406 749.757812 744.480469 749.910156 C 745.023438 750.058594 745.570312 750.183594 746.125 750.28125 C 746.675781 750.375 747.234375 750.445312 747.792969 750.488281 C 748.351562 750.53125 748.914062 750.542969 749.476562 750.53125 C 750.035156 750.515625 750.597656 750.476562 751.152344 750.410156 C 751.710938 750.339844 752.261719 750.246094 752.8125 750.121094 C 753.359375 750 753.898438 749.851562 754.433594 749.675781 C 754.96875 749.5 755.492188 749.296875 756.003906 749.070312 C 756.519531 748.84375 757.019531 748.59375 757.507812 748.316406 C 757.996094 748.039062 758.472656 747.742188 758.929688 747.417969 C 759.390625 747.09375 759.832031 746.75 760.257812 746.382812 C 760.683594 746.019531 761.089844 745.632812 761.476562 745.226562 C 761.867188 744.820312 762.230469 744.394531 762.578125 743.953125 C 762.925781 743.511719 763.246094 743.050781 763.546875 742.578125 C 763.847656 742.105469 764.125 741.617188 764.378906 741.113281 C 764.632812 740.613281 764.859375 740.101562 765.0625 739.578125 C 765.265625 739.054688 765.441406 738.519531 765.59375 737.980469 C 765.742188 737.4375 765.867188 736.890625 765.960938 736.339844 C 766.058594 735.785156 766.128906 735.230469 766.171875 734.667969 C 766.210938 734.109375 766.226562 733.546875 766.214844 732.988281 C 766.199219 732.425781 766.160156 731.867188 766.089844 731.308594 C 766.023438 730.75 765.929688 730.199219 765.804688 729.652344 C 765.683594 729.101562 765.535156 728.5625 765.359375 728.027344 C 765.183594 727.496094 764.980469 726.972656 764.753906 726.457031 C 764.527344 725.945312 764.277344 725.441406 764 724.953125 C 763.722656 724.464844 763.425781 723.992188 763.101562 723.53125 C 762.777344 723.074219 762.433594 722.628906 762.066406 722.203125 C 761.699219 721.777344 761.316406 721.371094 760.910156 720.984375 Z M 760.910156 720.984375 " fill-opacity="1" fill-rule="nonzero"/></svg>